P2
# This is an example bitmap of the letter "J"
6 10
15
0 0 0 0 15 0
0 0 0 0 15 0
0 0 0 0 15 0
0 0 0 0 15 0
0 0 0 0 15 0
0 0 0 0 15 0
15 0 0 0 15 0
0 15 15 15 0 0
0 0 0 0 0 0 0 0 0 0 0 0
